<?xml version="1.0" encoding="utf-8"?>
<!-- Generator: Adobe Illustrator 27.9.1, SVG Export Plug-In . SVG Version: 6.00 Build 0)  -->
<svg version="1.1" id="Calque_1" xmlns="http://www.w3.org/2000/svg" xmlns:xlink="http://www.w3.org/1999/xlink" x="0px" y="0px"
	 viewBox="0 0 500 250" style="enable-background:new 0 0 500 250;" xml:space="preserve">
<style type="text/css">
	.st0{fill:#0D1D2C;}
</style>
<g>
	<path class="st0" d="M142.94,234L7,125L143.35,16l20.72,25.28L57.56,124.17l106.51,84.13L142.94,234z"/>
	<path class="st0" d="M357.06,16L493,125L356.65,234l-20.72-25.28l106.51-82.89L335.93,41.7L357.06,16z"/>
	<g>
		<path class="st0" d="M260.46,231.48c-1.53,0-3.05,0-4.58,0c-3.09-0.49-6.24-0.04-9.32-0.7c-0.6-0.13-1.41-0.07-1.6-0.75
			c-0.21-0.74,0.6-1.01,1.09-1.35c2.7-1.91,4.44-4.51,5.59-7.57c0.57-1.52,0.08-1.93-1.4-1.56c-2.76,0.69-5.55,1.21-8.39,1.44
			c-5.71,0.46-11.21-0.25-16.26-3.15c-0.58-0.33-1.4-0.67-1.28-1.47c0.1-0.69,0.94-0.71,1.51-0.91c3.27-1.16,6.6-2.15,9.79-3.5
			c5.77-2.44,10.93-5.79,12.86-12.16c1.99-6.58,1.54-13.14-1.31-19.49c-4.55-10.14-11.75-18.06-20.6-24.58
			c-5.48-4.04-10.82-8.22-15.47-13.21c-8.61-9.24-12.95-20.15-13.09-32.79c-0.05-4.36,0.42-8.67,0.96-13.01
			c-1.18,1.9-1.85,3.98-2.4,6.11c-3.23,12.67-0.85,24.43,5.68,35.56c4.78,8.14,10.9,15.19,17.65,21.71
			c1.37,1.33,1.73,2.46,1.17,4.35c-1.86,6.34-3.46,12.74-1.8,19.43c0.11,0.44,0.39,1.04-0.19,1.29c-0.54,0.23-0.85-0.34-1.15-0.69
			c-2.46-2.82-4.96-5.61-7.35-8.49c-11.04-13.29-20.81-27.26-23.25-44.99c-0.19-1.4-0.7-1.49-1.68-0.61
			c-2.11,1.91-4.13,3.9-5.93,6.11c-0.42,0.51-0.78,1.44-1.5,1.27c-0.92-0.23-0.65-1.27-0.68-1.98c-0.88-18.33,1.32-36,11.23-51.99
			c0.85-1.37,0.63-1.9-1-2.1c-3.25-0.4-6.49-0.47-9.75-0.35c-1.46,0.05-1.92-0.38-1.2-1.82c1.28-2.55,2.84-4.92,4.51-7.23
			c9.08-12.55,20.74-21.29,36.25-24.17c9.51-1.76,18.91-0.58,28.24,1.44c14.98,3.25,28.41,9.63,40.08,19.65
			c1.57,1.35,1.95,2.38,0.53,4.09c-1.74,2.09-2.98,4.49-3.59,7.19c-1.97,8.7,3.17,15.06,12.05,14.9c2.61-0.05,5.07-0.71,7.51-1.52
			c4.19-1.41,4.19-1.41,8.49,0.13c0.07,0.02,0.13,0.05,0.19,0.08c0.85,0.32,1.26,0.1,0.94-0.83c-0.23-0.65-0.54-1.28-0.88-1.88
			c-3.61-6.45-7.99-12.32-13.12-17.64c-12.44-12.91-27.44-21.74-44.37-27.28c-23.29-7.62-47.23-9.05-71.49-6.88
			c-2.7,0.24-5.39,0.83-8.18,0.6c0.18-1.02,0.89-1.09,1.42-1.32c8.68-3.67,17.36-7.36,26.37-10.17c11.56-3.61,23.3-5.53,35.44-3.66
			c9.92,1.53,19.44,4.44,28.71,8.2c2.32,0.94,2.43,0.87,2.34-1.67c-0.12-3.39-0.6-6.77-0.42-10.17c0.04-0.73-0.28-1.75,0.5-2.09
			c0.96-0.41,1.4,0.67,1.92,1.24c8.55,9.56,17.06,19.14,25.59,28.72c2.67,3,5.35,6,8.04,8.99c0.3,0.33,0.6,0.95,1.15,0.63
			c0.26-0.15,0.35-0.72,0.39-1.11c0.14-1.38,0.2-2.76,0.33-4.14c0.06-0.65-0.19-1.58,0.66-1.78c0.72-0.17,0.94,0.69,1.26,1.19
			c9.24,14.5,18.49,28.98,27.69,43.51c2.88,4.55,3.23,4.85,8.5,3.68c4.81-1.07,9.11-2.98,11.43-7.77c0.32-0.66,0.25-1.8,1.07-1.88
			c1.06-0.11,1.32,1.09,1.74,1.83c4.53,8.04,7.95,16.47,8.84,25.76c1.33,13.79-2.85,25.42-13.5,34.52c-1.9,1.62-1.95,1.59-3.09-0.6
			c-2.06-3.93-3.68-8.07-6.17-11.78c-1.06-1.57-2.36-2.35-4.29-2.42c-6.04-0.21-11.89,0.77-17.54,2.83
			c-1.81,0.66-2.82,0.34-3.68-1.32c-2.13-4.13-4.25-8.26-6.52-12.31c-4.04-7.2-9.12-13.32-17.58-15.47
			c-9.41-2.4-18.58-1.54-27.37,2.58c-6,2.81-10.89,7.1-15.14,12.13c-2.52,2.99-2.52,3.04-4.91-0.17c-1.61-2.17-3.22-4.35-4.63-6.65
			c-2.46-3.98-3.97-8.31-3.19-13.05c0.34-2.07-0.31-2.74-2.2-2.98c-4.94-0.64-9.87-1.39-14.81-2.1c-2.12-0.3-2.34-0.64-1.35-2.49
			c2.27-4.24,5.12-8.07,8.4-11.58c0.94-1.01,2.62-1.51,2.87-2.88c0.27-1.48-1.31-2.49-1.84-3.82c-0.05-0.13-0.12-0.25-0.18-0.37
			c-0.59-1.25-0.34-2,1.18-2.04c2.08-0.05,4.15-0.11,6.23-0.22c0.93-0.05,2.21,0.17,2.22-1.23c0.01-1.46-1.3-1.17-2.21-1.18
			c-5.2-0.03-10.4-0.02-15.6,0c-0.52,0-1.12-0.18-1.74,0.52c2.06,2.36,4.09,4.77,6.23,7.09c1.09,1.18,1.08,2-0.19,3.06
			c-3.21,2.65-6.24,5.51-9.02,8.6c-2.18,2.42-4.41,4.82-5.58,7.95c-0.86,2.31-0.55,2.77,1.87,3.06c6.19,0.75,12.37,1.59,18.57,2.24
			c1.81,0.19,2.51,1,2.83,2.65c1.08,5.6,2.87,11,5.09,16.24c1.76,4.16,3.84,8.15,7.23,11.3c1,0.93,1.71,1.11,2.72-0.04
			c4.35-4.95,8.74-9.88,11.84-15.75c1.01-1.91,2.06-2.32,4.1-1.56c12.64,4.73,24.24,11.26,34.66,19.85
			c13.74,11.35,23.69,25.14,27.56,42.87c1.94,8.89,0.66,17.06-4.71,24.49c-3.57,4.94-8.28,8.52-13.53,11.47
			c-10,5.62-20.93,8.33-32.11,10.27C272.08,230.91,266.26,231.07,260.46,231.48z M355.29,120.08c0.49-3.78,0.97-7.51,0.56-11.28
			c-0.09-0.79-0.71-1.17-1.48-1.18c-2.21-0.03-4.42-0.04-6.63-0.02c-0.94,0.01-1.4,0.47-0.66,1.27
			C350.23,112.27,352.79,116.09,355.29,120.08z"/>
	</g>
</g>
</svg>
